/* XPM */
static char *feu[] = {
/* columns rows colors chars-per-pixel */
"79 57 256 2",
"   c #FF060401",
".  c #FF0D0706",
"X  c #060A02",
"o  c #FF0C0905",
"O  c #0D060A",
"+  c #FF0D090A",
"@  c #07080A",
"#  c #110604",
"$  c #1C0501",
"%  c #120A05",
"&  c #1B0C03",
"*  c #11050B",
"=  c #130B0B",
"-  c #1B0D0B",
";  c #0E1003",
":  c #151205",
">  c #1C1204",
",  c #15110B",
"<  c #1C120C",
"1  c #1E180A",
"2  c #0D0C10",
"3  c #140710",
"4  c #140A12",
"5  c #180E11",
"6  c #1D1211",
"7  c #121011",
"8  c #230700",
"9  c #230D03",
"0  c #2A0E02",
"q  c #220E0A",
"w  c #320F00",
"e  c #231204",
"r  c #2B1303",
"t  c #2C1A01",
"y  c #23130C",
"u  c #2B150B",
"i  c #23190C",
"p  c #2C1B0C",
"a  c #211807",
"s  c #331602",
"d  c #351B02",
"f  c #3B1C01",
"g  c #32160C",
"h  c #331A0B",
"j  c #3B1D0C",
"k  c #3B1504",
"l  c #210E10",
"z  c #241412",
"x  c #291612",
"c  c #2A1911",
"v  c #281817",
"b  c #341D12",
"n  c #3A1C13",
"m  c #371C18",
"M  c #3C2303",
"N  c #33210C",
"B  c #3C210A",
"V  c #372100",
"C  c #2C2012",
"Z  c #332214",
"A  c #3A2114",
"S  c #3F2A17",
"D  c #2F2120",
"F  c #3C2420",
"G  c #401F00",
"H  c #422302",
"J  c #492C02",
"K  c #42240C",
"L  c #4D2B0B",
"P  c #492505",
"I  c #512309",
"U  c #582D03",
"Y  c #4C310C",
"T  c #4F380F",
"R  c #55320B",
"E  c #5C3B0B",
"W  c #543B0B",
"Q  c #452613",
"!  c #4A2614",
"~  c #422B10",
"^  c #4B2C13",
"/  c #492B1B",
"(  c #512B14",
")  c #4B311A",
"_  c #4E3814",
"`  c #5D3B14",
"'  c #55381A",
"]  c #583515",
"[  c #693D18",
"{  c #5C3C25",
"}  c #653B22",
"|  c #5B4314",
" . c #FF56421D",
".. c #6F440D",
"X. c #62431C",
"o. c #6D471C",
"O. c #674918",
"+. c #79541E",
"@. c #574326",
"#. c #554432",
"$. c #694C23",
"%. c #6A4D29",
"&. c #654723",
"*. c #754D29",
"=. c #6E5227",
"-. c #75582A",
";. c #6D5A37",
":. c #795B36",
">. c #7C6439",
",. c #6F5848",
"<. c #7C6241",
"1. c #7F714C",
"2. c #776851",
"3. c #84572A",
"4. c #855823",
"5. c #815E38",
"6. c #88662C",
"7. c #93702E",
"8. c #876A34",
"9. c #896B36",
"0. c #866B3B",
"q. c #896738",
"w. c #956D37",
"e. c #96783C",
"r. c #976729",
"t. c #A47739",
"y. c #856C42",
"u. c #8C6D43",
"i. c #81654F",
"p. c #8D7147",
"a. c #937B4C",
"s. c #8C755B",
"d. c #927657",
"f. c #AD7F4D",
"g. c #917F69",
"h. c #887B68",
"j. c #B8863F",
"k. c #978355",
"l. c #AA884B",
"z. c #BC8F4A",
"x. c #BC954D",
"c. c #AA8F54",
"v. c #A48257",
"b. c #A99157",
"n. c #B49258",
"m. c #968567",
"M. c #A98C64",
"N. c #AB9161",
"B. c #AF9967",
"V. c #B39464",
"C. c #BB9C67",
"Z. c #B8986C",
"A. c #AF9678",
"S. c #BEA369",
"D. c #B9A163",
"F. c #BDA67C",
"G. c #BDA372",
"H. c #CBA257",
"J. c #D4A759",
"K. c #C5A467",
"L. c #D1A566",
"P. c #D2B66D",
"I. c #C5A574",
"U. c #C5AA76",
"Y. c #CDB379",
"T. c #C8B373",
"R. c #D5BA7A",
"E. c #C9B66A",
"W. c #E1BC6B",
"Q. c #E5C57B",
"!. c #998C84",
"~. c #AE9E85",
"^. c #BEB28C",
"/. c #BBAD90",
"(. c #BEB1A9",
"). c #C3AA87",
"_. c #CCB584",
"`. c #D2BA83",
"'. c #D9BC88",
"]. c #CAB19B",
"[. c #D6BD9D",
"{. c #DCCA86",
"}. c #DBC188",
"|. c #DECA96",
" X c #DBC798",
".X c #EECD83",
"XX c #E4CC8B",
"oX c #E5CA87",
"OX c #E1D28D",
"+X c #F4D889",
"@X c #E2C998",
"#X c #E9CF96",
"$X c #E8D394",
"%X c #EAD39B",
"&X c #E8D499",
"*X c #F6DA95",
"=X c #EFE69B",
"-X c #FAE296",
";X c #FDE49C",
":X c #F6E39A",
">X c #D9CBA8",
",X c #E9CEA1",
"<X c #E2D3AD",
"1X c #EAD8A6",
"2X c #F3DCA4",
"3X c #F3DEAF",
"4X c #E6DAB6",
"5X c #F1DFB4",
"6X c #F5E4A5",
"7X c #FAE3A3",
"8X c #FEECA5",
"9X c #F4E2AC",
"0X c #FBE3AA",
"qX c #FDEBAB",
"wX c #F6EBA6",
"eX c #FFF3AC",
"rX c #FFF1A7",
"tX c #EDE0B4",
"yX c #F2E4B6",
"uX c #FCE6B3",
"iX c #FCEBB3",
"pX c #FDEBBB",
"aX c #F5E8B3",
"sX c #FEF2B3",
"dX c #FFF9B3",
"fX c #FEF3BD",
"gX c #FFFBBA",
"hX c #EDDBC2",
"jX c #ECE3C9",
"kX c #FDEBCC",
"lX c #FCE9C3",
"zX c #FDF5C3",
"xX c #FFFBC4",
"cX c #FEF5CB",
"vX c #F7FBCA",
"bX c #FFFACB",
"nX c #FEF5D3",
"mX c #F7FED4",
"MX c #FEFCD4",
"NX c #FEF6DC",
"BX c #F7FBDB",
"VX c #FEFBDD",
"CX c #FEF6E4",
"ZX c #F6FBE3",
"AX c #FDFCE4",
"SX c #FEF6EB",
"DX c #F5FCEE",
"FX c #FDFDEC",
"GX c #F3F5E0",
"HX c #FBF7F3",
"JX c #F6FEF4",
"KX c #FCFDF6",
"LX c #FCF7FC",
"PX c #F7FCFA",
"IX c #FCFDF9",
"UX c #F4F6F3",
/* pixels */
". . . . + . . . + . . . . . . . % . . . . . . . + + o o o o + + o   . + . . # % . o # + + X X X o X ; + O 3 * * * . X X X X o + + % o o . + . . . * # * * + o ",
". . . . . . . . . . + . + . . + + . . # O O + O . . o o + * . . .   o + . . . o * . # . + @ + . X o   . 3 O O 3 = . o o o o + X * . o o . . . . * . # . . . . ",
". . . . . . . . . . . . . . . . O O . + * * . O 3 . % o * . O + + + + . + + . O + . . . . . * * . % % + . O O . . . . o . . = 3 + + . . . . o o o o . . . O . ",
". . . . . + . . . O + . . . . + + O O . * . * * * . # # . . * = = + . . , 2 O + + . . + * = * 3 # . % <   + @ + * . * # # # O @ . + + . . O # o o o + . . . O ",
"+ . . . . . + . . . . + + . . . . O + + # o o % * % * # % . = , = = % % , , X o ; ; + X o % % # # - < % * , o ; + * * 3 * O . + o o o . O 3 O 3 o o X o + o * ",
". . . + . + . . + . . . . . . + . . . . . o % % , = . . = , , : - & % % > : o o o X 2 , & u r r u q v & > : : : > & * O * * o o o o o + O 3 3 O .   o X o o . ",
". . . . . . + . . . . . . . . . + o . . o o ; : , , = = = 6 i 1 < , - - - q > : 1 + , < & M L ` ^ 8 . u a 9 9 $ $ r u i < # . % o o . @ 3 O O O O + + X . o . ",
". + . . . . . . . . . . + . . . o . . o o o o : , i z - - x c N u > y q & q - & > > p t M 0.n.I.v.q.@.8 M f d.M.p.%.t # & a > $ % # . @ O O . . O O + . + . o ",
". + . . . . . . . + . . + . . . o   % = X + * = - 6 v F m k ! ^ _ K s u y z z z 0 ) L E c.XX8X6X9X9X%Xb.J 6.OX6XOX{.T.a._ t i 1 - . # o %   o + . O 2 . O . . ",
". . . . . . . . . . . . + . . . , o o , : + . 5 - y h ( } E [ 4.q.*.| Y t e b j ! *.w.U.7XsXsXgXbXbXxX8XT.XXqXdXgXgXgXsX_. .$ C z & = o o % o o . * O * O . + ",
". . . + . + . . . . . . . . . . . +   % < - 5 l & g L o.6.r.r.t.j.z.K.n.+.H f w U v.[.uXlXMXnXAXFXZXVXMXzXxXbXcXmXMXMXbXzX X>.% # p > % o o   = # * * . . . + ",
"+ . . . . . . . . . . . . . . = . = % % < = - q g f E 7.x.H.J.J.J.W.*X*X'.K.C.N.V.,XcXNXCXCXKXIXKXKXFXBXVXAXAXAXFXCXFXVXnXMXyXF.@.e e % % % = o % . # # . . . ",
". . . + . . . . . . . + + + = = = = = < & & r h K -.c.P.Q.+X-X-X;X=XeXfXxXcXMXcXNXNXAXFXKXSXJXDXFXKXKXFXKXDXHXKXKXHXIXKXSXSXCXnX<X;.> C - 3 * . . o o # o o . ",
". . . . . . . . . . . . + . + = = = < < y u r V O.U.;XrXeXeXgXgXgXxXbXMXVXBXBXAXAXFXKXSXKXJXJXJXKXFXKXKXIXJXIXIXIXIXLXLXIXKXSXCXNX>X@.$ u 5 # = * % o o o + # ",
". . . . . . + . + . . + . = = , , < 6 z u j V | D.$XdXgXbXmXBXBXAXAXAXZXFXKXFXKXKXKXKXKXJXIXHXIXHXKXKXIXKXIXKXHXKXHXIXIXIXJXHXFXNXVX4Xg.p p a # % + . . . * O ",
"* O . + . o + + O = . = + + + = : < q m j H T D.qXfXMXmXAXFXJXDXKXFXKXKXKXKXJXIXKXKXKXFXKXKXIXIXIXIXKXIXKXJXJXIXKXKXKXIXKXJXJXJXFXCXKXCX~.t p e % + . + . * * ",
"3 * . + + + o . . 4 * . % + 4 = , 1 u / } G w.3XMXVXSXHXFXKXKXKXKXKXKXKXIXKXKXKXKXKXKXKXKXIXIXIXIXKXKXIXKXKXIXKXKXIXKXIXKXKXKXKXKXKXHXFXNX/.Q u > o % o . O . ",
"3 * . X X X o o = 4 @ * % o 5 = : > g ( *.3.c.pXVXFXIXPXHXKXKXKXKXKXKXKXKXKXIXIXIXIXKXKXKXKXKXKXKXIXKXKXIXKXKXKXKXKXKXIXKXIXIXKXKXKXIXHXAXnXs.& C o % % . @ * ",
". + + + o o # # = 5 + + , % . - v g k I 3.l.R.fXVXFXKXIXKXIXPXPXIXKXIXKXKXIXKXKXKXKXIXKXIXKXIXKXKXIXIXKXIXKXKXIXIXIXKXKXKXIXKXKXKXKXIXKXCXNXA.8 p y > = + 2 . ",
". X @ @ o # # #   , , ; : % $ u A ! I U 4.L.&XbXAXKXJXPXKXHXPXPXIXIXKXIXKXKXIXKXKXIXKXKXIXKXKXKXKXKXIXKXKXKXIXKXKXKXKXIXKXKXKXIXKXKXKXKXFXAX).k A q q < = + + ",
"o . + O o o # # = : o : < 9 b Q L o.4.7.x.oXpXMXZXKXKXJXKXKXIXIXKXKXIXKXKXIXKXKXKXKXIXKXKXKXIXIXIXKXKXIXKXKXIXKXIXKXKXKXIXKXKXIXIXKXDXFXKXNX).L Q m q z 4 O   ",
"# . + O o # % = % % i : 9 r r O.6.l.H.Q.+X0XbXAXJXJXKXKXKXKXKXIXIXKXIXKXKXIXKXIXIXKXIXKXIXKXKXKXIXKXKXIXKXIXKXKXKXKXIXIXKXIXKXKXHXKXKXJXKXAX[.' 0 9 u q 5 + o ",
"# * * O O O = - - $ . u b r ` e.R.oX+X;X8XzXNXKXJXPXKXKXFXKXKXLXKXIXKXKXKXKXIXKXKXKXKXKXIXKXKXKXKXKXKXKXKXKXIXIXKXIXKXKXIXKXIXKXIXKXIXJXZXFXkX[.].,.$ b = -   ",
"$ * O . O . - 9 $ { i.B 9 d.1X6XwX8XeXsXzXVXDXJXIXKXFXFXFXKXKXIXKXKXKXIXIXKXKXKXIXIXKXIXKXKXIXIXKXIXIXKXIXKXKXKXKXKXIXKXKXKXIXKXKXKXIXJXKXFXAXAXAXhXs.$ x % + ",
"3 O .   o % e s ` I.%XY.b.<XVXNXNXMXMXMXAXDXPXPXPXKXKXFXKXKXKXIXIXKXKXIXKXKXIXKXKXKXIXIXKXKXKXKXIXKXKXKXKXIXIXKXIXKXIXKXKXKXIXKXIXKXIXIXKXKXAXAXAXVX4X' 9 - + ",
"O O o o % % r M l.+XqXfXfXMXZXFXFXFXAXZXFXPXPXIXIXKXFXKXIXIXIXKXIXKXKXIXIXKXIXKXIXKXKXKXKXIXIXKXKXKXIXIXKXKXKXKXIXKXKXKXIXKXIXKXIXIXLXIXJXJXKXFXFXAXyX;.u - % ",
"X + X o = y $ &.'.pXcXCXVXAXFXFXIXIXKXKXJXJXPXIXKXKXKXKXIXIXPXIXKXKXKXKXKXIXKXKXIXKXKXKXKXKXIXIXKXIXKXKXIXKXKXIXKXKXIXIXIXKXKXIXIXIXKXKXIXPXJXJXDXAXyXy.h & + ",
"; X o . = p Y N.@XpXNXKXHXDXKXKXPXIXJXJXHXPXIXKXKXKXKXKXIXIXJXJXKXIXIXKXKXKXKXIXKXKXIXIXIXKXKXKXKXKXIXKXIXKXKXIXKXIXKXKXKXKXIXKXIXIXIXKXKXJXIXJXJXZXlXk.9 l + ",
"X   = . # h k.R.1XzXAXDXIXIXIXIXIXPXKXFXJXKXKXIXKXKXKXKXIXKXKXKXIXKXKXIXIXIXKXKXIXKXKXKXKXIXIXKXIXIXKXKXIXKXKXKXKXKXIXKXKXKXIXKXIXIXKXKXIXHXIXKXJXZXNXm.# v . ",
"o o = z g >.}.7XzXbXAXDXPXIXIXHXKXKXKXFXFXKXLXIXKXKXKXKXIXKXKXKXKXKXIXKXKXKXKXIXKXKXIXKXKXKXKXKXKXKXKXIXKXKXIXKXIXIXKXKXIXKXKXIXIXKXKXKXKXKXIXIXJXAXjX#.# z . ",
"+ # - / ' V.#XpXxXcXmXFXJXJXIXIXKXKXKXKXIXIXIXIXIXKXKXKXKXKXKXKXKXIXKXKXKXIXKXIXKXIXIXKXIXKXKXIXIXKXKXIXKXIXKXIXKXKXKXIXIXKXIXKXIXIXKXFXKXKXIXLXFXFX(.# v 5 o ",
"o o $ e s -.C.I. XcXMXMXVXAXAXAXFXKXKXKXIXIXIXIXIXKXKXFXFXKXIXIXKXKXKXIXKXKXKXIXIXKXKXKXIXKXKXKXIXIXKXKXKXIXKXKXKXIXKXKXIXKXIXKXIXKXDXKXFXKXLXHXFXFX!.  Z % o ",
"; o   # $ 0 M L 5.C.@X1XuXfXxXbXVXAXKXJXPXIXIXIXIXIXKXKXKXKXIXIXKXKXKXKXKXKXIXIXIXIXIXKXKXKXKXIXIXIXIXKXIXKXKXKXIXJXIXKXIXJXIXKXIXDXKXAXKXIXHXKXjXtXh.  p % * ",
"X o + = % & 0 r H R O.8.K.$X2X9XkXNXNXAXFXDXKXHXIXIXHXKXKXKXIXKXFXKXKXKXKXKXIXIXIXIXIXKXKXKXIXKXIXKXIXKXKXKXKXKXIXIXKXKXIXIXKXPXKXPXKXKXKXFXFXAX).1.2.  i   + ",
". . O * = = % > e d V Y y.V.v.:.u.U.0XfXMXMXSXIXHXIXIXIXKXKXJXKXKXKXIXIXHXKXKXLXIXIXIXJXKXKXKXIXKXKXKXKXKXKXIXKXKXKXKXKXKXKXKXIXIXIXPXUXFXAXAXAX/.M A > % o + ",
"* * 3 O O . , ; > > e S { ! k k 8 d 0.b.@XcXVXFXPXIXIXIXIXKXKXJXKXIXIXIXIXFXKXKXIXIXPXIXKXKXKXKXKXKXKXKXIXIXKXIXKXKXKXKXKXKXIXKXIXIXPXIXKXVXNXpXd.$ b & o o O ",
"* * * O 2 @ @ + o : > u r 0 0 g b A K 0 %. XnXAXAXJXPXIXIXIXJXKXPXPXIXIXIXKXKXFXFXKXKXKXPXPXJXKXKXKXIXKXIXIXJXKXKXFXFXKXKXKXKXIXIXIXIXJXGXAXcXZ.^ j a -   % + ",
"* * 3 O + + 2 + : % % & q q q q l x n ! f M.pXzXVXFXPXPXPXKXKXKXIXIXPXPXIXKXKXFXFXFXFXIXIXIXIXKXKXKXKXKXIXKXIXKXKXFXKXFXKXKXKXLXIXIXSXFXAXkX_.=./ 9 q # # % X ",
"o o + . + . + * % = < < - % = < z u u B f 9.%XfXnXAXFXPXJXJXKXIXIXIXKXKXPXJXIXJXKXFXIXIXIXIXIXKXKXFXKXKXIXIXIXIXKXKXKXKXKXKXKXLXKXSXNXMX1XM.%.^ c o % # # . = ",
"o o o . + + . . # % * # = = 5 = # < c u H ` C.0XfXbXVXDXDXDXKXFXFXFXZXFXKXKXPXIXIXKXKXIXIXIXKXIXKXKXKXKXIXIXIXIXIXIXKXKXKXKXKXKXFXVXzX|.u.R H h % % # # # #   ",
"o   o o o o o o . % . % = = , : % < - z m n :.`.;XrXgXMXAXKXFXAXAXNXMXMXVXAXKXIXHXIXKXHXKXKXKXKXPXIXIXIXKXKXKXKXHXIXIXHXKXJXDXZXBXbX*Xe.E ! B < # % # # o + + ",
"o % o o o o . o . . . # + = + % % , z v v m G -.c.E.&XgXMXNXNXNXcXpX1X XtXNXAXFXIXKXJXDXFXKXFXKXIXPXPXKXKXKXIXKXIXIXKXKXKXFXZXmXbXeXQ.-.G K y % % # % # o + . ",
"# # . + . . o . O . . # + + + o , ; < 6 z b 9 Q Y J e.oX;X8XiX0X}.B.>. .5._.bXMXZXDXIXJXDXFXKXKXIXIXKXFXKXFXFXKXIXIXIXKXFXZXBXxXrX-Xl.U K u 5 * + # # o o . O ",
"# . # . . . O . . * . . + o o % + % , < i y e u u B H o.l.D.n.9.W M d H G 0.OXxXVXAXJXJXFXKXHXIXIXIXKXKXAXKXKXKXKXKXKXFXVXMXbXaX*XP.-.M m 5 * * o % # o o o O ",
"O . . . . . . O * . * * . + X o % % & < - # & - q c A d B f $ & e N n n K R :.|.zXMXAXZXKXIXKXIXKXKXKXFXKXFXKXFXFXFXAXMXbXfXrX:XP.6.T N z 4 * o o o . . o % . ",
"O O . . . . . * * * * . . + X + % % % % o $ = = z - q x y y b c x a q u g j H =.}.pXbXMXAXFXKXKXKXFXFXFXZXFXAXAXNXVXnX5X%XXXR.D.q.P t < . O . . o o + .   o . ",
"* * . o o . . . . . . . . o o o + + + , o % # o & # % % & - - 6 6 , 6 < u b j f 0.XX8XiXzXnXVXZXZXBXBXNXVXbXbXcXbX3XF.0.$.O.O.L K r % : +   . % . @ O @ o o . ",
"* . . o o o . + . . . . o . . X 2 + X o + o % # o + % +   + 5 = = , , : 5 y u f E L..X.XqXzXMXmXmXvXvXzXfXaX2X%X_.a.Y r r s r r u # & % o % . . . O @ 2 o + . ",
". . . . . . . . + . . . . . . . + + . . X + . # # + + + . + * % % o , 2 2 7 y r P f.L.z.R.qXgXgXdXdXdXwX`.U.y.*.( Q j p a > 1 : . # . . o . . . . . . . + + . ",
". . . . O . . . . . . + . + . . + . . . @ . . . . . . . . + . + % o @ + + 2 , e k $.4...t.oXqXiXrXrX:XS.O.W f s k r e $ % + X X + . . . . . + . . . . . . + . ",
". . . . . . . . . . . . . . . . . . . . . . . . . . . . . . . . # * . . + + % > & j ^ H ` u.I._.`.G.u. .M M t t & % % # . . . * . . + . . . . . + . . . . . + ",
"+ . . . . . + . . + . . . . + . . . + . . . . O + . . . . . . . 3 * * o + o % # : % p p h ^ &.&.' P s t t e % o o o % + * * * * . . . . . + . . . . . . . . . ",
". . . . . + . . . + . . . . . . . . . . . . . + . . . . . . . . O O O . # * # # % = = = & u d 0 0 r r 9 % . . + X + @ . . * % * . . . . . . + . . . . . + . . ",
". . . . . . + . . . . . + . + . . . + . + . . . . . . . . . + + + @ . * * * * * . + = . # % & - $ - # . % . X + + @ + o . * # + . . . . . . . . . . . . . . . ",
". . . + . + . . . . . + . + . . . + . + . . . . . . . . . . . o X X o + * * * * * # . . + o   . .   * =   . . O O @ + o o o o o . . + . + . . . + . . . . . . ",
"+ . . . . . . . O . . . . . . . . . . . . . . . . + . . . . . + o X o . * * * * # % %   . + + + + + + + * * + . . .   o o o o o . . . . . . . + . . . + . + . ",
". . . . . + . . + . + . . . + . . + . . . . . + . . . . + . . o o o o o o + + . o # o # o o o . o o o o + . . o . . . * + o # o . . . . . . . . + . . . . . + "
};
